<svg version="1.1" id="Layer_1" xmlns="http://www.w3.org/2000/svg" xmlns:xlink="http://www.w3.org/1999/xlink" x="0px" y="0px"
	 width="100%" viewBox="0 0 500 500" enable-background="new 0 0 500 500" xml:space="preserve">
<path fill="#000000" opacity="1.000000" stroke="none" 
	d="
M279.000000,501.000000 
	C186.000015,501.000000 93.500046,501.000000 1.000050,501.000000 
	C1.000033,334.333405 1.000033,167.666794 1.000017,1.000139 
	C167.666565,1.000093 334.333130,1.000093 500.999756,1.000046 
	C500.999847,167.666519 500.999847,334.333038 500.999939,500.999786 
	C427.166656,501.000000 353.333344,501.000000 279.000000,501.000000 
M304.857117,63.455524 
	C304.667358,63.125038 304.404022,63.048985 303.520813,63.038429 
	C303.337677,62.978462 303.154510,62.918495 302.682434,62.250061 
	C300.446198,60.895939 298.209961,59.541817 295.481781,58.071407 
	C295.319824,58.118469 295.157837,58.165527 294.348938,57.904327 
	C292.330109,56.606010 290.348724,55.244576 288.285492,54.021172 
	C282.010620,50.300472 275.523041,46.906528 269.449799,42.884773 
	C258.677002,35.750919 247.355164,33.263226 235.569565,39.350830 
	C222.900970,45.894516 210.674728,53.292999 198.236511,60.284794 
	C186.478653,66.894142 174.687363,73.444008 162.927155,80.049202 
	C151.892212,86.247032 140.856094,92.443420 129.861191,98.711807 
	C114.509773,107.463913 99.123116,116.158226 83.895012,125.121025 
	C75.371407,130.137772 70.085876,137.436203 69.274490,148.231750 
	C69.183311,148.886093 69.012283,149.540436 69.012283,150.194778 
	C69.012367,210.958420 69.020119,271.722046 69.077690,332.485657 
	C69.078804,333.665802 69.676102,334.845398 70.023415,336.677155 
	C70.091888,337.105286 70.160355,337.533386 70.088043,338.731506 
	C71.033501,341.156738 71.978966,343.581970 72.914108,346.063385 
	C72.914108,346.063385 72.970627,346.071808 72.961945,346.818726 
	C75.836304,353.296722 80.474838,358.049103 86.892319,361.126221 
	C86.892319,361.126221 86.957474,361.128693 87.145882,361.804352 
	C99.626625,369.202545 112.017380,376.758667 124.621712,383.939941 
	C132.233414,388.276733 140.176682,392.031525 148.149780,396.607330 
	C148.722946,397.135834 149.296127,397.664337 150.200089,398.823364 
	C154.463715,400.896667 158.727325,402.969971 163.273209,405.564667 
	C163.837784,405.711761 164.402359,405.858856 165.148117,406.481720 
	C165.426392,406.661743 165.704681,406.841766 166.252228,407.561096 
	C166.821548,407.729095 167.390854,407.897095 167.997818,408.002258 
	C167.997818,408.002258 167.946533,408.054688 168.116287,408.497742 
	C168.116287,408.497742 168.475403,408.807648 168.475403,408.807648 
	C168.475403,408.807648 168.948837,408.778198 169.462677,408.910034 
	C169.635651,408.946686 169.808624,408.983368 170.261887,409.649475 
	C182.468201,416.834778 194.674515,424.020081 207.207855,431.681122 
	C207.754776,431.847992 208.301697,432.014893 209.024155,432.743744 
	C209.674515,433.138519 210.324875,433.533325 211.631729,434.221893 
	C215.513535,436.716034 219.200226,439.611572 223.320816,441.614471 
	C230.290924,445.002472 236.624878,450.269196 245.796112,450.008575 
	C251.237793,449.292236 257.449707,450.020996 261.984833,447.603821 
	C279.530273,438.252319 296.586304,427.974548 313.730438,417.881775 
	C321.231445,413.465912 328.382721,408.453033 335.909363,404.084259 
	C349.553131,396.164825 363.395325,388.588013 377.084656,380.745972 
	C386.219727,375.512909 395.277679,370.141296 404.287842,364.695465 
	C411.546722,360.308105 419.798431,356.969391 423.667236,347.687775 
	C424.718719,344.455841 425.770203,341.223907 427.220123,337.243988 
	C427.457977,335.633667 427.902222,334.023529 427.903564,332.412994 
	C427.942627,286.501282 427.950439,240.589539 427.892395,194.677887 
	C427.889984,192.769424 427.204529,190.861801 427.237823,188.213287 
	C427.459076,177.343903 427.785583,166.475052 427.838959,155.604843 
	C427.855469,152.239761 425.189331,152.564758 423.215302,153.568222 
	C417.786316,156.327957 412.471863,159.320602 407.201172,162.374863 
	C406.515381,162.772293 406.352844,164.072769 405.997314,165.001266 
	C405.997314,165.001266 405.956116,164.948639 405.287537,164.988205 
	C404.842346,165.026672 404.397156,165.065155 403.238373,165.002472 
	C398.480652,167.973587 393.722931,170.944702 388.270782,174.057480 
	C385.456116,175.739090 382.675598,177.481339 379.820587,179.091385 
	C369.735931,184.778488 359.593353,190.363541 349.536072,196.098343 
	C342.250061,200.252930 335.064301,204.583298 327.141785,208.955673 
	C317.066833,214.619659 306.982178,220.266617 296.944336,225.995636 
	C296.417480,226.296341 296.288513,227.294174 295.997559,227.998901 
	C295.997559,227.998901 295.977936,227.969437 295.375153,228.031250 
	C294.897064,228.340027 294.418976,228.648819 293.468536,229.071625 
	C293.468536,229.071625 293.007874,229.226181 292.353394,229.381058 
	C290.877197,230.574677 289.400970,231.768280 287.151764,232.991089 
	C282.436157,235.707703 277.720581,238.424316 272.266907,240.989883 
	C266.325745,244.331451 260.407593,247.714767 254.437149,251.003113 
	C248.188980,254.444412 248.054886,254.976486 251.496567,261.295563 
	C258.144806,273.501984 264.716827,285.749939 271.321503,297.980072 
	C273.392792,301.815613 275.639343,302.320587 279.685089,299.815094 
	C285.133423,296.440979 290.496521,292.923126 296.019348,289.676483 
	C310.574158,281.120392 325.239258,272.751465 339.768890,264.153229 
	C345.653198,260.671051 351.299652,256.786987 357.634186,252.987915 
	C358.124420,252.711517 358.614655,252.435104 359.816010,252.100388 
	C362.064728,251.004456 364.313416,249.908524 367.191833,248.505676 
	C367.191833,257.120789 367.191833,265.028076 367.069366,273.454102 
	C367.046783,273.630341 367.024200,273.806549 366.164276,274.287964 
	C366.121582,288.470306 366.078857,302.652679 365.404449,317.168427 
	C360.283783,320.119110 355.163147,323.069824 349.661407,326.605194 
	C337.062378,333.598663 324.453339,340.574310 311.881897,347.617035 
	C310.792877,348.227112 309.952179,349.280365 308.304291,350.000641 
	C307.184113,350.980408 306.063934,351.960144 304.951508,352.966309 
	C304.951508,352.966309 304.925110,352.944031 304.183258,352.938568 
	C301.826355,354.023529 299.524780,355.262817 297.091614,356.135193 
	C295.649963,356.652039 293.573792,357.307861 292.511322,356.676147 
	C282.681000,350.831421 273.084747,344.593353 263.261444,338.736328 
	C258.016174,335.608887 252.458740,333.005127 246.350739,330.281494 
	C243.104172,332.107330 239.781372,333.811462 236.628159,335.786377 
	C231.355942,339.088501 226.192032,342.563599 220.256378,346.048920 
	C215.635605,348.743927 210.929245,351.304901 206.424286,354.181335 
	C203.444397,356.083923 200.946564,357.061493 197.425476,354.926727 
	C186.490067,348.296936 175.322739,342.050385 164.265915,335.619843 
	C159.816833,333.032318 155.421097,330.353058 150.621613,327.172119 
	C146.434219,325.107391 142.246826,323.042664 138.045776,320.955872 
	C138.045776,320.955872 138.020905,320.948578 137.868591,320.493591 
	C137.670029,320.164734 137.391098,320.068268 136.573944,320.032257 
	C136.573944,320.032257 136.094757,319.934662 135.845367,319.341248 
	C134.919601,318.881989 133.993835,318.422729 133.039215,317.976166 
	C133.039215,317.976166 133.040604,317.944855 132.913071,317.450226 
	C132.617188,317.355286 132.321304,317.260345 131.480515,316.953949 
	C130.939041,316.396088 130.397568,315.838196 129.990814,314.294128 
	C130.014374,265.888611 130.037949,217.483124 130.784149,169.023499 
	C131.872192,168.349930 132.939682,167.640167 134.051453,167.008316 
	C145.849045,160.303467 157.668045,153.636139 169.452271,146.907913 
	C180.986328,140.322510 192.526917,133.746780 203.988342,127.036491 
	C211.746933,122.494080 219.373535,117.726242 227.814667,113.015121 
	C233.522430,110.019730 239.437790,107.351044 244.859848,103.905975 
	C248.093842,101.851143 250.027328,102.388268 253.051712,104.267746 
	C259.487457,108.267166 266.359985,111.563828 273.211151,115.665726 
	C273.797302,116.036690 274.383453,116.407646 275.653992,116.970177 
	C277.067261,117.667847 278.480530,118.365524 280.179199,119.643135 
	C281.099518,120.106049 282.019806,120.568970 283.224396,121.677856 
	C288.470459,124.477051 293.716492,127.276237 299.301575,130.683319 
	C302.181122,132.142288 305.060669,133.601242 308.234131,135.692032 
	C311.432495,137.597763 314.727448,139.361008 317.803589,141.446991 
	C321.280212,143.804535 324.394867,143.709091 328.049591,141.591461 
	C339.152985,135.157806 350.467560,129.089462 361.602844,122.709427 
	C366.862762,119.695740 371.901245,116.295685 377.051941,113.049782 
	C377.051941,113.049782 377.074951,113.042717 377.784485,112.992691 
	C382.600220,110.694580 382.600220,110.694580 380.080170,107.936371 
	C380.080170,107.936371 380.021484,107.937721 379.897980,107.439934 
	C379.599426,107.349205 379.300873,107.258476 378.355194,106.873550 
	C372.589417,103.577904 366.823639,100.282249 361.053314,96.944466 
	C361.053314,96.944466 361.010956,96.946159 360.878723,96.463943 
	C360.667419,96.111488 360.376984,96.025154 359.542206,96.049919 
	C359.542206,96.049919 359.060455,95.958534 358.775024,95.311577 
	C355.540161,93.530289 352.305267,91.749001 349.036346,89.984543 
	C349.036346,89.984543 349.047668,89.948677 348.923676,89.424629 
	C348.610931,89.333870 348.298157,89.243103 347.543060,89.023933 
	C347.543060,89.023933 347.095184,88.916542 346.918457,88.419807 
	C346.609039,88.334862 346.299652,88.249908 345.361176,87.825928 
	C343.932404,86.870773 342.503632,85.915611 340.735809,84.315826 
	C337.916992,82.823219 335.053833,81.408005 332.287628,79.823563 
	C323.838104,74.983810 315.425934,70.078949 306.430115,64.988358 
	C306.247253,64.901787 306.064392,64.815208 305.811157,64.356331 
	C305.648773,64.118530 305.425201,64.023293 305.128113,63.893814 
	C305.128113,63.893814 304.951111,63.902397 304.857117,63.455524 
z"/>
<path fill="#05AEE5" opacity="1.000000" stroke="none" 
	d="
M295.973724,58.187695 
	C298.209961,59.541817 300.446198,60.895939 302.468750,62.621918 
	C297.735870,65.547096 293.430054,66.851952 289.900421,61.342663 
	C289.740692,61.093369 286.850494,61.809982 286.647827,62.495335 
	C284.993591,68.089806 283.318665,68.999939 277.498108,68.536423 
	C275.248444,68.357269 272.739471,69.669479 270.565155,70.741447 
	C267.636444,72.185326 265.002716,74.223312 262.085907,75.696495 
	C258.550598,77.482048 254.855103,78.951271 251.223129,80.544189 
	C248.525284,81.727417 245.883682,83.085136 243.100494,84.017090 
	C238.484161,85.562881 233.490387,86.036278 230.936096,91.358246 
	C229.709946,93.912971 227.130768,94.717445 223.752563,94.478088 
	C220.800049,94.268906 216.087448,95.324211 214.942337,97.377098 
	C210.623611,105.119453 204.106995,105.584244 196.613403,105.198997 
	C193.804611,105.054604 189.430130,105.324638 188.355804,107.032570 
	C184.931412,112.476624 182.912827,110.735840 180.807892,106.554764 
	C175.051575,108.645210 175.072632,108.647980 174.320023,114.363403 
	C174.243652,114.943275 173.844635,115.619125 173.384949,115.988892 
	C168.057419,120.274414 163.364395,125.981155 155.034927,122.573975 
	C153.445816,121.923958 150.860947,123.708229 148.735489,124.369385 
	C149.331818,125.942841 150.075378,127.479469 150.480896,129.100662 
	C150.847702,130.566971 151.464279,132.430603 150.893768,133.588379 
	C148.900497,137.633575 143.237228,138.369247 139.749161,135.447021 
	C138.924118,134.755798 137.654022,133.989944 136.724808,134.134369 
	C132.817200,134.741791 128.891083,135.469742 125.155746,136.708450 
	C124.537231,136.913544 124.643990,139.896683 124.771393,141.568924 
	C124.869331,142.854477 126.255112,144.802185 125.821884,145.250137 
	C121.573944,149.642670 119.775681,157.372757 111.227020,156.212982 
	C110.042671,156.052277 108.629181,157.432190 107.349312,158.148117 
	C99.526733,162.524017 91.761375,167.007828 83.830292,171.176682 
	C82.877213,171.677658 80.917381,170.719604 79.651131,170.024429 
	C78.633736,169.465851 77.960030,168.281250 76.293869,166.452576 
	C75.687927,169.059036 75.044701,170.546021 75.060005,172.026215 
	C75.091980,175.117081 73.713585,175.852875 70.988113,174.613129 
	C70.943832,173.162903 70.921303,172.108063 70.930641,170.579834 
	C70.746376,163.793976 70.530243,157.481537 70.271744,150.748993 
	C70.178101,149.483902 70.126831,148.638901 70.075562,147.793884 
	C70.085876,137.436203 75.371407,130.137772 83.895012,125.121025 
	C99.123116,116.158226 114.509773,107.463913 129.861191,98.711807 
	C140.856094,92.443420 151.892212,86.247032 162.927155,80.049202 
	C174.687363,73.444008 186.478653,66.894142 198.236511,60.284794 
	C210.674728,53.292999 222.900970,45.894516 235.569565,39.350830 
	C247.355164,33.263226 258.677002,35.750919 269.449799,42.884773 
	C275.523041,46.906528 282.010620,50.300472 288.285492,54.021172 
	C290.348724,55.244576 292.330109,56.606010 294.662262,58.248642 
	C294.975586,58.592957 294.959198,58.973515 294.911865,59.011368 
	C294.864502,59.049225 295.025940,59.039124 295.197998,58.913254 
	C295.591980,58.608326 295.793182,58.408432 295.973724,58.187695 
z"/>
<path fill="#482180" opacity="1.000000" stroke="none" 
	d="
M247.042175,330.165039 
	C252.458740,333.005127 258.016174,335.608887 263.261444,338.736328 
	C273.084747,344.593353 282.681000,350.831421 292.511322,356.676147 
	C293.573792,357.307861 295.649963,356.652039 297.091614,356.135193 
	C299.524780,355.262817 301.826355,354.023529 304.505737,353.270081 
	C304.213654,354.521027 303.696503,356.146729 302.968994,356.247040 
	C297.628174,356.983582 300.097260,359.346680 301.350555,361.999817 
	C302.487640,364.406982 303.871582,367.407196 303.352203,369.747803 
	C302.042328,375.651428 303.907837,380.588165 307.594635,384.412659 
	C312.044189,389.028412 314.106323,394.104065 313.804260,401.192993 
	C315.892609,400.125275 317.351746,399.170288 318.950287,398.620544 
	C320.559692,398.067047 322.434570,397.354187 323.969696,397.700775 
	C327.706116,398.544342 331.299561,400.006470 334.984039,401.107605 
	C335.677856,401.314972 336.951355,401.299133 337.237640,400.886719 
	C339.935150,397.000702 346.067169,396.771851 347.272217,391.305573 
	C348.204193,387.078094 351.462067,386.713531 355.036987,387.326050 
	C355.910492,388.264771 356.746979,388.877380 357.583496,389.490021 
	C357.838348,388.917786 358.093201,388.345551 358.348053,387.773315 
	C357.232025,387.515564 356.116028,387.257782 355.030334,386.615051 
	C355.561188,383.009308 355.810455,379.716064 356.706085,376.609161 
	C356.997650,375.597565 359.068787,374.325623 360.166565,374.461456 
	C363.796051,374.910431 367.352783,375.947876 371.072510,376.790039 
	C371.163940,376.519989 371.336914,376.073364 371.466400,375.614441 
	C371.840820,374.287537 372.197815,372.955750 372.561615,371.625854 
	C373.835266,372.434601 375.418518,373.000702 376.295807,374.120087 
	C377.179169,375.247253 377.360779,376.924408 377.849915,378.360565 
	C378.610321,377.817291 379.370728,377.274017 380.131134,376.730713 
	C383.470367,372.525543 386.809601,368.320374 390.203949,364.045807 
	C391.222961,364.423615 392.987732,365.785034 394.141052,365.384735 
	C399.519623,363.517914 404.729248,361.164490 410.307312,358.825500 
	C411.413757,357.111725 412.212189,355.557495 413.370911,353.971161 
	C414.821198,352.626526 415.911194,351.313965 417.150146,349.817627 
	C417.510468,349.398163 417.743286,349.185974 418.311279,348.937805 
	C419.420654,348.577271 420.216370,348.276245 421.316772,347.962585 
	C422.024780,347.909058 422.428040,347.868134 422.881653,347.877716 
	C422.932037,347.928223 423.033051,348.028931 423.033051,348.028931 
	C419.798431,356.969391 411.546722,360.308105 404.287842,364.695465 
	C395.277679,370.141296 386.219727,375.512909 377.084656,380.745972 
	C363.395325,388.588013 349.553131,396.164825 335.909363,404.084259 
	C328.382721,408.453033 321.231445,413.465912 313.730438,417.881775 
	C296.586304,427.974548 279.530273,438.252319 261.984833,447.603821 
	C257.449707,450.020996 251.237793,449.292236 245.722717,449.709839 
	C246.434204,447.576508 247.854248,445.756561 247.896820,443.904877 
	C248.110703,434.606476 247.964493,425.299805 247.955322,415.527771 
	C247.968582,407.706879 247.971268,400.354309 247.986755,392.533081 
	C248.008301,373.197327 248.043152,354.330078 247.982773,335.463196 
	C247.977127,333.696167 247.370026,331.931030 247.042175,330.165039 
z"/>
<path fill="#4A258E" opacity="1.000000" stroke="none" 
	d="
M367.001617,273.982788 
	C367.024200,273.806549 367.046783,273.630341 367.307922,272.830872 
	C367.876862,264.266235 368.308685,256.325684 368.378784,248.381958 
	C368.385712,247.598679 366.176788,246.795837 365.006470,245.618225 
	C365.352600,244.152679 365.362732,242.736877 366.075592,242.041580 
	C372.351837,235.920013 370.259521,228.114334 370.003296,220.939209 
	C369.861145,216.958191 370.602570,214.245956 374.441101,215.238815 
	C379.333984,216.504333 382.990417,215.536545 387.726227,213.695648 
	C393.130646,211.594910 394.413971,208.882004 393.933258,204.276474 
	C393.271118,197.932800 394.950623,192.707932 399.387268,188.031967 
	C403.067505,184.153305 401.637024,180.537308 396.204315,180.158981 
	C391.859497,179.856415 390.106140,177.465881 388.965240,173.915833 
	C393.722931,170.944702 398.480652,167.973587 403.502808,165.310120 
	C404.178131,166.411652 404.589050,167.205521 404.925018,168.349396 
	C404.088806,169.950699 403.617889,171.642212 402.512299,172.371292 
	C399.105011,174.618164 400.287506,176.503799 402.478607,178.795135 
	C404.013947,177.920807 405.374603,177.145966 406.364532,176.582230 
	C409.879944,179.703079 412.766815,182.943619 416.273956,185.234741 
	C423.034546,189.651230 426.928009,197.431732 425.791107,205.679886 
	C425.566650,207.308472 425.355164,208.960373 425.378296,210.598129 
	C425.549377,222.694992 425.804810,234.790665 425.968933,246.887589 
	C425.993469,248.696930 425.726929,250.516464 425.513245,252.321609 
	C424.784851,258.474701 423.815460,264.607666 423.337860,270.779236 
	C422.996857,275.185547 423.000916,279.666901 423.377472,284.069733 
	C424.032440,291.728668 425.094025,299.352814 425.602356,307.003967 
	C422.851379,309.242737 420.483215,311.469116 417.617371,314.163361 
	C420.223541,304.340240 412.405701,306.578827 407.424652,305.414551 
	C404.837067,304.809723 402.142395,304.663086 399.147217,304.262878 
	C399.863190,302.564880 400.720215,301.538025 400.523041,300.788605 
	C400.123566,299.270386 399.153015,297.902405 398.417877,296.472473 
	C397.050476,297.373138 394.412354,298.459503 394.512634,299.145721 
	C395.494904,305.867096 391.019104,306.831879 387.099243,307.282837 
	C385.591064,309.531067 384.517426,311.131500 383.443787,312.731964 
	C381.909851,311.308014 380.470245,309.760468 378.814178,308.496521 
	C377.303436,307.343475 375.662079,306.170013 373.887451,305.607300 
	C372.052490,305.025482 369.987701,305.168274 368.019958,304.525787 
	C367.756775,294.362610 367.497040,284.667725 367.165894,274.728302 
	C367.063507,274.316772 367.032562,274.149780 367.001617,273.982788 
z"/>
<path fill="#4243AF" opacity="1.000000" stroke="none" 
	d="
M149.869293,398.192871 
	C149.296127,397.664337 148.722946,397.135834 148.221222,395.939056 
	C148.542496,393.807648 149.006226,392.344879 149.008606,390.881348 
	C149.029190,378.250488 148.966644,365.619507 148.954926,352.521606 
	C148.987717,346.035217 148.994476,340.015778 149.027252,333.593353 
	C149.702560,331.365417 150.351822,329.540497 151.001068,327.715546 
	C155.421097,330.353058 159.816833,333.032318 164.265915,335.619843 
	C175.322739,342.050385 186.490067,348.296936 197.425476,354.926727 
	C200.946564,357.061493 203.444397,356.083923 206.424286,354.181335 
	C210.929245,351.304901 215.635605,348.743927 220.998825,345.987915 
	C226.339462,344.277435 230.937668,342.627899 236.455017,340.648621 
	C236.205811,341.172241 236.346191,340.418701 236.798447,340.011749 
	C238.226166,338.727081 239.770752,337.572296 241.270111,336.367249 
	C241.710800,338.115570 242.321457,339.842560 242.544220,341.618195 
	C242.765945,343.385559 242.064743,345.417084 242.688049,346.961548 
	C246.620667,356.706512 244.945541,366.626434 243.766479,376.494232 
	C243.614624,377.765137 241.673355,379.580048 240.337997,379.802216 
	C237.022980,380.353668 235.530197,381.873291 234.792023,385.139526 
	C233.898453,389.093231 228.105698,392.211639 225.572662,390.034363 
	C222.485245,387.380585 220.271301,388.675323 218.202362,390.612640 
	C214.711700,393.881226 211.136215,395.998474 206.206039,394.100098 
	C205.493225,393.825623 204.561890,394.139709 203.731384,394.146667 
	C196.653564,394.205933 190.068848,399.381653 182.626511,396.152344 
	C181.917587,395.844727 180.735672,396.856476 179.797577,396.805908 
	C176.677734,396.637817 173.552826,396.376373 170.461655,395.930328 
	C168.416382,395.635284 166.449142,394.713959 164.404617,394.520508 
	C161.738388,394.268250 159.030243,394.458801 156.011292,394.458801 
	C154.341614,395.473907 152.105453,396.833374 149.869293,398.192871 
z"/>
<path fill="#492284" opacity="1.000000" stroke="none" 
	d="
M409.999298,358.985046 
	C404.729248,361.164490 399.519623,363.517914 394.141052,365.384735 
	C392.987732,365.785034 391.222961,364.423615 390.203949,364.045807 
	C386.809601,368.320374 383.470367,372.525543 380.131134,376.730713 
	C379.370728,377.274017 378.610321,377.817291 377.849915,378.360565 
	C377.360779,376.924408 377.179169,375.247253 376.295807,374.120087 
	C375.418518,373.000702 373.835266,372.434601 372.561615,371.625854 
	C372.197815,372.955750 371.840820,374.287537 371.466400,375.614441 
	C371.336914,376.073364 371.163940,376.519989 371.072510,376.790039 
	C367.352783,375.947876 363.796051,374.910431 360.166565,374.461456 
	C359.068787,374.325623 356.997650,375.597565 356.706085,376.609161 
	C355.810455,379.716064 355.561188,383.009308 355.030334,386.615051 
	C351.462067,386.713531 348.204193,387.078094 347.272217,391.305573 
	C346.067169,396.771851 339.935150,397.000702 337.237640,400.886719 
	C336.951355,401.299133 335.677856,401.314972 334.984039,401.107605 
	C331.299561,400.006470 327.706116,398.544342 323.969696,397.700775 
	C322.434570,397.354187 320.559692,398.067047 318.950287,398.620544 
	C317.351746,399.170288 315.892609,400.125275 313.804260,401.192993 
	C314.106323,394.104065 312.044189,389.028412 307.594635,384.412659 
	C303.907837,380.588165 302.042328,375.651428 303.352203,369.747803 
	C303.871582,367.407196 302.487640,364.406982 301.350555,361.999817 
	C300.097260,359.346680 297.628174,356.983582 302.968994,356.247040 
	C303.696503,356.146729 304.213654,354.521027 304.876648,353.272827 
	C304.925110,352.944031 304.951508,352.966309 305.278076,352.902618 
	C306.735168,351.935211 307.865662,351.031494 308.996124,350.127777 
	C309.952179,349.280365 310.792877,348.227112 311.881897,347.617035 
	C324.453339,340.574310 337.062378,333.598663 350.185425,326.454681 
	C352.136963,326.537903 353.564423,326.771637 355.300537,327.202667 
	C357.233643,327.911896 358.858154,328.423798 360.482635,328.935699 
	C360.478210,329.363739 360.473755,329.791809 360.469299,330.219849 
	C358.177551,330.671478 355.607117,330.628540 353.674377,331.717468 
	C351.835663,332.753357 350.663147,334.971649 349.197723,336.670105 
	C349.589233,337.064117 349.980713,337.458160 350.372223,337.852173 
	C351.523987,337.109192 352.701721,335.721161 353.821808,335.766205 
	C355.763763,335.844269 359.054138,336.427582 359.342072,337.471344 
	C360.367096,341.186768 360.805664,345.206390 360.622772,349.070923 
	C360.454681,352.623657 362.308472,353.391510 364.798401,352.878235 
	C370.699249,351.661774 375.190704,353.969788 379.178925,357.854218 
	C382.643372,361.228424 385.722107,361.219116 389.647552,358.119598 
	C396.233093,352.919678 404.795898,353.558136 409.999298,358.985046 
z"/>
<path fill="#04AAE3" opacity="1.000000" stroke="none" 
	d="
M71.009872,175.008545 
	C73.713585,175.852875 75.091980,175.117081 75.060005,172.026215 
	C75.044701,170.546021 75.687927,169.059036 76.293869,166.452576 
	C77.960030,168.281250 78.633736,169.465851 79.651131,170.024429 
	C80.917381,170.719604 82.877213,171.677658 83.830292,171.176682 
	C91.761375,167.007828 99.526733,162.524017 107.349312,158.148117 
	C108.629181,157.432190 110.042671,156.052277 111.227020,156.212982 
	C119.775681,157.372757 121.573944,149.642670 125.821884,145.250137 
	C126.255112,144.802185 124.869331,142.854477 124.771393,141.568924 
	C124.643990,139.896683 124.537231,136.913544 125.155746,136.708450 
	C128.891083,135.469742 132.817200,134.741791 136.724808,134.134369 
	C137.654022,133.989944 138.924118,134.755798 139.749161,135.447021 
	C143.237228,138.369247 148.900497,137.633575 150.893768,133.588379 
	C151.464279,132.430603 150.847702,130.566971 150.480896,129.100662 
	C150.075378,127.479469 149.331818,125.942841 148.735489,124.369385 
	C150.860947,123.708229 153.445816,121.923958 155.034927,122.573975 
	C163.364395,125.981155 168.057419,120.274414 173.384949,115.988892 
	C173.844635,115.619125 174.243652,114.943275 174.320023,114.363403 
	C175.072632,108.647980 175.051575,108.645210 180.807892,106.554764 
	C182.912827,110.735840 184.931412,112.476624 188.355804,107.032570 
	C189.430130,105.324638 193.804611,105.054604 196.613403,105.198997 
	C204.106995,105.584244 210.623611,105.119453 214.942337,97.377098 
	C216.087448,95.324211 220.800049,94.268906 223.752563,94.478088 
	C227.130768,94.717445 229.709946,93.912971 230.936096,91.358246 
	C233.490387,86.036278 238.484161,85.562881 243.100494,84.017090 
	C245.883682,83.085136 248.525284,81.727417 251.223129,80.544189 
	C254.855103,78.951271 258.550598,77.482048 262.085907,75.696495 
	C265.002716,74.223312 267.636444,72.185326 270.565155,70.741447 
	C272.739471,69.669479 275.248444,68.357269 277.498108,68.536423 
	C283.318665,68.999939 284.993591,68.089806 286.647827,62.495335 
	C286.850494,61.809982 289.740692,61.093369 289.900421,61.342663 
	C293.430054,66.851952 297.735870,65.547096 302.613220,62.926155 
	C303.154510,62.918495 303.337677,62.978462 303.926880,63.263298 
	C304.523621,63.649242 304.729675,63.787319 304.951111,63.902397 
	C304.951111,63.902397 305.128113,63.893814 305.233826,64.118324 
	C305.485260,64.520531 305.665924,64.649132 305.881531,64.728638 
	C306.064392,64.815208 306.247253,64.901787 306.726746,65.446831 
	C308.350861,67.270424 309.678314,68.635536 310.752808,70.236122 
	C307.465942,72.598572 304.414368,74.893921 302.683258,69.811295 
	C301.033203,72.595787 300.080383,76.297340 297.729340,77.776459 
	C290.827972,82.118324 284.250275,87.602806 275.177612,87.080582 
	C271.763580,86.884064 268.213409,87.245804 264.873901,88.005989 
	C260.434784,89.016502 256.142090,90.668999 251.784424,92.039108 
	C248.475433,93.079498 244.705246,93.438095 241.963776,95.307632 
	C238.203094,97.872253 235.016571,100.576279 231.849670,97.873680 
	C228.964752,100.226425 226.782639,101.940147 224.678909,103.745209 
	C223.316757,104.913986 222.095215,106.245163 220.761398,107.448982 
	C219.813736,108.304276 218.828354,109.132614 217.781006,109.859413 
	C215.908615,111.158745 213.976715,112.372345 212.069702,113.621788 
	C211.277466,114.734787 209.992447,114.482201 208.701660,114.448143 
	C200.891205,114.242081 193.701920,115.756927 187.538315,121.116814 
	C181.187027,126.639908 175.841110,133.625946 167.043030,135.807648 
	C164.828552,136.356796 157.883087,147.548187 157.756744,150.217270 
	C156.358688,150.979218 155.200775,151.515594 153.802277,151.809479 
	C151.830765,150.069412 150.099838,148.571838 148.368912,147.074249 
	C147.982285,147.454605 147.595657,147.834961 147.209015,148.215317 
	C148.162827,150.162903 149.116638,152.110474 150.055725,154.039948 
	C150.041031,154.021866 150.043976,154.067673 149.687408,153.978729 
	C145.062714,151.931335 141.614029,152.154266 138.855881,156.713440 
	C138.183563,157.824768 135.229431,158.263580 133.557571,157.909821 
	C130.416458,157.245224 129.959167,158.720886 130.355667,161.018768 
	C130.599106,162.429520 131.468964,163.732193 131.844635,165.292572 
	C130.776855,166.009720 129.921982,166.517670 128.632675,167.019196 
	C117.669914,166.930191 109.567528,171.934753 102.361633,179.070053 
	C98.681618,182.714020 94.790512,186.236893 88.788239,184.330811 
	C87.822098,184.024017 86.507561,184.515472 85.438438,184.883194 
	C80.615402,186.542023 75.822739,188.289108 71.000473,189.538300 
	C70.991165,184.384323 71.000519,179.696426 71.009872,175.008545 
z"/>
<path fill="#472588" opacity="1.000000" stroke="none" 
	d="
M388.618011,173.986664 
	C390.106140,177.465881 391.859497,179.856415 396.204315,180.158981 
	C401.637024,180.537308 403.067505,184.153305 399.387268,188.031967 
	C394.950623,192.707932 393.271118,197.932800 393.933258,204.276474 
	C394.413971,208.882004 393.130646,211.594910 387.726227,213.695648 
	C382.990417,215.536545 379.333984,216.504333 374.441101,215.238815 
	C370.602570,214.245956 369.861145,216.958191 370.003296,220.939209 
	C370.259521,228.114334 372.351837,235.920013 366.075592,242.041580 
	C365.362732,242.736877 365.352600,244.152679 364.726135,245.796371 
	C362.658752,248.291809 360.881836,250.225266 359.104919,252.158707 
	C358.614655,252.435104 358.124420,252.711517 357.138550,252.798584 
	C356.094025,251.739288 355.545166,250.869339 355.028168,249.612152 
	C356.185883,243.141266 356.015900,242.952942 349.564636,242.717270 
	C349.185730,244.586960 349.009460,246.449600 348.365631,248.133469 
	C348.116302,248.785599 346.713074,249.486328 346.009460,249.338303 
	C345.294617,249.187866 344.355927,248.064590 344.274261,247.287552 
	C343.879028,243.529099 343.094788,239.642654 343.667450,235.992813 
	C344.435516,231.097412 342.864532,228.580719 338.408997,226.799057 
	C336.678345,226.107010 334.375427,223.678375 334.477936,222.188339 
	C334.741486,218.357483 332.703827,217.170837 329.857544,216.216202 
	C328.219727,215.666901 326.565186,215.167496 325.522919,214.837234 
	C326.443054,212.447418 327.138458,210.641342 327.833832,208.835266 
	C335.064301,204.583298 342.250061,200.252930 349.536072,196.098343 
	C359.593353,190.363541 369.735931,184.778488 379.820587,179.091385 
	C382.675598,177.481339 385.456116,175.739090 388.618011,173.986664 
z"/>
<path fill="#463DAB" opacity="1.000000" stroke="none" 
	d="
M150.034698,398.508118 
	C152.105453,396.833374 154.341614,395.473907 156.011292,394.458801 
	C159.030243,394.458801 161.738388,394.268250 164.404617,394.520508 
	C166.449142,394.713959 168.416382,395.635284 170.461655,395.930328 
	C173.552826,396.376373 176.677734,396.637817 179.797577,396.805908 
	C180.735672,396.856476 181.917587,395.844727 182.626511,396.152344 
	C190.068848,399.381653 196.653564,394.205933 203.731384,394.146667 
	C204.561890,394.139709 205.493225,393.825623 206.206039,394.100098 
	C211.136215,395.998474 214.711700,393.881226 218.202362,390.612640 
	C220.271301,388.675323 222.485245,387.380585 225.572662,390.034363 
	C228.105698,392.211639 233.898453,389.093231 234.792023,385.139526 
	C235.530197,381.873291 237.022980,380.353668 240.337997,379.802216 
	C241.673355,379.580048 243.614624,377.765137 243.766479,376.494232 
	C244.945541,366.626434 246.620667,356.706512 242.688049,346.961548 
	C242.064743,345.417084 242.765945,343.385559 242.544220,341.618195 
	C242.321457,339.842560 241.710800,338.115570 241.270111,336.367249 
	C239.770752,337.572296 238.226166,338.727081 236.798447,340.011749 
	C236.346191,340.418701 236.205811,341.172241 236.455017,340.648621 
	C230.937668,342.627899 226.339462,344.277435 221.361908,345.946411 
	C226.192032,342.563599 231.355942,339.088501 236.628159,335.786377 
	C239.781372,333.811462 243.104172,332.107330 246.696457,330.223267 
	C247.370026,331.931030 247.977127,333.696167 247.982773,335.463196 
	C248.043152,354.330078 248.008301,373.197327 247.661102,392.705048 
	C246.872147,394.865601 246.250015,396.358429 246.004349,397.910797 
	C245.347305,402.062775 244.113068,405.049347 239.243515,406.458374 
	C232.689255,408.354950 226.250320,411.099426 220.277405,414.410034 
	C215.699860,416.947235 211.228989,417.984985 206.122986,418.154480 
	C203.262634,418.249451 200.454025,419.902649 197.622101,420.853760 
	C197.595795,421.472595 197.569489,422.091400 197.543182,422.710236 
	C192.160919,419.650116 186.873077,416.404846 181.363022,413.595367 
	C177.734848,411.745422 173.786560,410.523315 169.981613,409.020050 
	C169.808624,408.983368 169.635651,408.946686 169.053314,408.704102 
	C168.430008,408.321198 168.197540,408.173370 167.946533,408.054688 
	C167.946533,408.054688 167.997818,408.002258 167.771011,407.838531 
	C167.023788,407.457123 166.503387,407.239441 165.982971,407.021790 
	C165.704681,406.841766 165.426392,406.661743 164.995453,406.006775 
	C164.225494,405.369019 163.608215,405.206177 162.990936,405.043335 
	C158.727325,402.969971 154.463715,400.896667 150.034698,398.508118 
M168.717148,400.826080 
	C168.132034,400.588470 167.546921,400.350891 166.961823,400.113281 
	C166.934189,400.813202 166.906540,401.513123 166.878891,402.213043 
	C167.482346,401.936829 168.085800,401.660614 168.717148,400.826080 
z"/>
<path fill="#217EC7" opacity="1.000000" stroke="none" 
	d="
M149.001221,333.996338 
	C148.994476,340.015778 148.987717,346.035217 148.577744,352.514191 
	C145.145248,353.232147 142.373077,349.541962 138.964783,353.004089 
	C136.642258,355.363251 133.411392,357.022125 130.319443,358.390167 
	C123.546227,361.386932 120.413559,367.874451 123.793816,372.682404 
	C119.039581,374.320282 110.294594,371.181580 108.429512,367.707092 
	C106.001083,367.365082 103.926720,367.382538 102.072441,366.752380 
	C96.984688,365.023285 91.989380,363.022156 86.957474,361.128693 
	C86.957474,361.128693 86.892319,361.126221 86.806778,360.764008 
	C86.144806,358.927704 85.568382,357.453613 85.076614,355.641479 
	C87.679482,350.094055 91.354424,346.862366 97.625610,347.533417 
	C98.757027,347.654449 100.339035,347.034851 101.133568,346.203461 
	C103.869431,343.340698 106.630943,340.425476 108.854996,337.169739 
	C111.739578,332.947052 113.573624,327.919678 116.829933,324.056305 
	C123.281464,316.402100 130.397522,309.356110 128.058044,297.957153 
	C127.598953,295.720184 127.967804,293.313263 127.963264,290.517578 
	C127.964745,282.364044 127.957764,274.677643 127.961548,266.523865 
	C127.966156,260.032349 127.959999,254.008224 127.961411,247.516510 
	C127.972122,239.367706 127.975266,231.686478 127.987793,223.536346 
	C128.017273,214.736237 128.037369,206.405045 128.249313,198.075043 
	C128.441162,198.076263 128.824356,198.096024 128.870483,198.556549 
	C128.941605,235.870270 128.953796,272.723480 129.028229,309.576569 
	C129.032059,311.478363 129.567932,313.379089 129.856094,315.280334 
	C130.397568,315.838196 130.939041,316.396088 131.903351,317.212585 
	C132.541779,317.663147 132.779922,317.821014 133.040604,317.944855 
	C133.040604,317.944855 133.039215,317.976166 133.165131,318.279846 
	C134.225601,319.033905 135.160172,319.484283 136.094757,319.934662 
	C136.094757,319.934662 136.573944,320.032257 136.949280,320.265533 
	C137.534164,320.683655 137.766266,320.833557 138.020905,320.948578 
	C138.020905,320.948578 138.045776,320.955872 138.076233,321.320129 
	C139.155640,322.834717 140.287369,323.921875 141.228317,325.154633 
	C142.033813,326.209930 143.255722,327.468567 143.192307,328.574097 
	C142.941620,332.943024 145.394104,333.987854 149.001221,333.996338 
M93.288765,354.267548 
	C93.612747,353.660461 93.936737,353.053345 94.260727,352.446259 
	C93.731277,352.296875 93.201828,352.147491 92.672386,351.998108 
	C92.707710,352.708374 92.743034,353.418640 93.288765,354.267548 
z"/>
<path fill="#482586" opacity="1.000000" stroke="none" 
	d="
M354.996338,249.999390 
	C355.545166,250.869339 356.094025,251.739288 356.848633,252.847534 
	C351.299652,256.786987 345.653198,260.671051 339.768890,264.153229 
	C325.239258,272.751465 310.574158,281.120392 296.019348,289.676483 
	C290.496521,292.923126 285.133423,296.440979 279.685089,299.815094 
	C275.639343,302.320587 273.392792,301.815613 271.321503,297.980072 
	C264.716827,285.749939 258.144806,273.501984 251.496567,261.295563 
	C248.054886,254.976486 248.188980,254.444412 254.437149,251.003113 
	C260.407593,247.714767 266.325745,244.331451 272.560791,241.402237 
	C271.778290,244.389389 272.860291,245.527542 275.259521,246.730621 
	C277.644806,247.926712 280.831207,249.798950 281.376740,251.954224 
	C282.876678,257.880127 287.890869,260.565643 291.481964,264.417389 
	C294.299103,267.439026 298.265594,269.334747 295.389099,275.172028 
	C298.321991,274.598419 300.317139,274.208191 302.227264,273.834625 
	C306.109375,279.274811 309.322876,279.888611 313.774597,276.406219 
	C315.204712,275.287506 317.101074,274.780518 318.598083,273.728821 
	C323.114075,270.556183 327.538605,267.253296 332.381805,263.992004 
	C337.084717,261.421539 342.306061,259.651978 345.456848,256.064087 
	C348.292358,252.835236 350.918976,250.647018 354.996338,249.999390 
z"/>
<path fill="#1A81CA" opacity="1.000000" stroke="none" 
	d="
M127.954796,290.984741 
	C127.967804,293.313263 127.598953,295.720184 128.058044,297.957153 
	C130.397522,309.356110 123.281464,316.402100 116.829933,324.056305 
	C113.573624,327.919678 111.739578,332.947052 108.854996,337.169739 
	C106.630943,340.425476 103.869431,343.340698 101.133568,346.203461 
	C100.339035,347.034851 98.757027,347.654449 97.625610,347.533417 
	C91.354424,346.862366 87.679482,350.094055 84.715393,355.614929 
	C82.185074,354.296051 80.032646,352.744049 78.036469,351.011993 
	C76.258034,349.468781 74.652481,347.726318 72.970627,346.071808 
	C72.970627,346.071808 72.914108,346.063385 72.939224,345.642090 
	C72.052505,342.801025 71.140663,340.381256 70.228828,337.961517 
	C70.160355,337.533386 70.091888,337.105286 69.990791,335.881195 
	C69.969696,306.172668 69.947876,277.260040 70.002708,248.347549 
	C70.051544,222.594528 70.185219,196.841675 70.435638,171.077362 
	C70.589821,171.065994 70.898773,171.053238 70.898773,171.053238 
	C70.921303,172.108063 70.943832,173.162903 70.988113,174.613129 
	C71.000519,179.696426 70.991165,184.384323 70.980789,190.006165 
	C71.011772,198.955307 71.043777,206.970490 71.048531,215.455048 
	C71.026619,228.612091 71.031960,241.299759 71.023048,254.457108 
	C71.011520,261.615356 71.014236,268.303955 71.009674,275.461945 
	C71.012650,284.283661 71.022903,292.635986 71.026306,301.457642 
	C71.017235,310.248962 70.913155,318.573059 71.088531,326.891327 
	C71.129440,328.831909 72.119347,330.752472 73.005028,333.841644 
	C74.865509,329.953156 75.930748,325.798035 77.010948,325.794128 
	C82.462418,325.774506 84.419128,321.139587 87.729523,318.567810 
	C95.278168,312.703461 102.002846,305.737427 109.761566,300.198486 
	C115.231041,296.293854 121.849396,293.998566 127.954796,290.984741 
z"/>
<path fill="#482489" opacity="1.000000" stroke="none" 
	d="
M331.998779,264.001221 
	C327.538605,267.253296 323.114075,270.556183 318.598083,273.728821 
	C317.101074,274.780518 315.204712,275.287506 313.774597,276.406219 
	C309.322876,279.888611 306.109375,279.274811 302.227264,273.834625 
	C300.317139,274.208191 298.321991,274.598419 295.389099,275.172028 
	C298.265594,269.334747 294.299103,267.439026 291.481964,264.417389 
	C287.890869,260.565643 282.876678,257.880127 281.376740,251.954224 
	C280.831207,249.798950 277.644806,247.926712 275.259521,246.730621 
	C272.860291,245.527542 271.778290,244.389389 272.929810,241.477753 
	C277.720581,238.424316 282.436157,235.707703 287.891235,232.916290 
	C290.089752,231.636383 291.548798,230.431274 293.007874,229.226181 
	C293.007874,229.226181 293.468536,229.071625 293.987854,228.957779 
	C294.997437,228.552444 295.487701,228.260941 295.977936,227.969437 
	C295.977936,227.969437 295.997559,227.998901 296.347961,228.033371 
	C298.186493,229.656998 300.608734,231.080719 300.926880,232.877075 
	C301.327209,235.137558 300.007019,237.702759 299.490112,239.879990 
	C301.241180,239.767380 303.593170,239.071716 305.636139,239.591248 
	C310.869598,240.922226 315.870728,243.275101 321.143188,244.314026 
	C326.472290,245.364151 327.721710,248.828323 326.810577,252.936722 
	C325.610840,258.346497 327.996918,261.384918 331.998779,264.001221 
z"/>
<path fill="#05A0DC" opacity="1.000000" stroke="none" 
	d="
M311.005768,70.000648 
	C309.678314,68.635536 308.350861,67.270424 307.011292,65.552368 
	C315.425934,70.078949 323.838104,74.983810 332.287628,79.823563 
	C335.053833,81.408005 337.916992,82.823219 340.886719,85.087936 
	C340.918884,96.083290 336.428253,100.150383 326.144745,101.207077 
	C321.369202,101.697800 315.959625,103.267822 312.349915,106.206429 
	C306.503662,110.965759 300.043274,111.347748 293.297729,112.119499 
	C290.919250,112.391617 288.664612,113.746254 287.171448,114.302109 
	C287.974548,117.682312 288.485962,119.834846 288.683655,121.917572 
	C287.247101,121.228996 286.124298,120.610222 285.080292,119.698792 
	C284.506104,114.645798 280.704041,116.475708 277.854980,115.674759 
	C276.177277,114.886299 274.653351,114.412506 272.867218,113.721207 
	C268.379150,110.385002 264.153290,107.266289 260.059509,103.822021 
	C262.156158,102.185677 264.858582,99.317787 265.955658,99.837662 
	C270.354370,101.922081 273.605255,99.586029 277.338776,98.419319 
	C281.983612,96.967850 286.817139,96.130547 291.515106,94.832253 
	C292.842072,94.465530 294.017883,93.469345 295.193054,92.660172 
	C296.265167,91.921951 297.221893,90.370079 298.264862,90.338310 
	C306.247681,90.095131 311.703979,84.344841 318.391205,81.332893 
	C321.812042,79.792137 324.389526,80.350136 326.911987,82.876205 
	C328.029114,83.994911 329.387909,84.872284 330.636993,85.859207 
	C331.136444,85.394012 331.635895,84.928818 332.135345,84.463623 
	C330.821350,82.900063 329.790741,80.880310 328.141785,79.855988 
	C322.547699,76.381035 316.734955,73.258080 311.005768,70.000648 
z"/>
<path fill="#462385" opacity="1.000000" stroke="none" 
	d="
M332.381805,263.992004 
	C327.996918,261.384918 325.610840,258.346497 326.810577,252.936722 
	C327.721710,248.828323 326.472290,245.364151 321.143188,244.314026 
	C315.870728,243.275101 310.869598,240.922226 305.636139,239.591248 
	C303.593170,239.071716 301.241180,239.767380 299.490112,239.879990 
	C300.007019,237.702759 301.327209,235.137558 300.926880,232.877075 
	C300.608734,231.080719 298.186493,229.656998 296.336365,228.017639 
	C296.288513,227.294174 296.417480,226.296341 296.944336,225.995636 
	C306.982178,220.266617 317.066833,214.619659 327.487793,208.895477 
	C327.138458,210.641342 326.443054,212.447418 325.522919,214.837234 
	C326.565186,215.167496 328.219727,215.666901 329.857544,216.216202 
	C332.703827,217.170837 334.741486,218.357483 334.477936,222.188339 
	C334.375427,223.678375 336.678345,226.107010 338.408997,226.799057 
	C342.864532,228.580719 344.435516,231.097412 343.667450,235.992813 
	C343.094788,239.642654 343.879028,243.529099 344.274261,247.287552 
	C344.355927,248.064590 345.294617,249.187866 346.009460,249.338303 
	C346.713074,249.486328 348.116302,248.785599 348.365631,248.133469 
	C349.009460,246.449600 349.185730,244.586960 349.564636,242.717270 
	C356.015900,242.952942 356.185883,243.141266 355.028168,249.612152 
	C350.918976,250.647018 348.292358,252.835236 345.456848,256.064087 
	C342.306061,259.651978 337.084717,261.421539 332.381805,263.992004 
z"/>
<path fill="#0597D7" opacity="1.000000" stroke="none" 
	d="
M288.997375,121.987373 
	C288.485962,119.834846 287.974548,117.682312 287.171448,114.302109 
	C288.664612,113.746254 290.919250,112.391617 293.297729,112.119499 
	C300.043274,111.347748 306.503662,110.965759 312.349915,106.206429 
	C315.959625,103.267822 321.369202,101.697800 326.144745,101.207077 
	C336.428253,100.150383 340.918884,96.083290 341.056274,85.410248 
	C342.503632,85.915611 343.932404,86.870773 345.839294,88.150604 
	C346.548157,88.672607 346.807404,88.819695 347.095184,88.916542 
	C347.095184,88.916542 347.543060,89.023933 347.921295,89.246338 
	C348.522919,89.669235 348.772308,89.829216 349.047668,89.948677 
	C349.047668,89.948677 349.036346,89.984543 349.081818,90.333817 
	C352.438354,92.441582 355.749390,94.200058 359.060455,95.958542 
	C359.060455,95.958534 359.542206,96.049919 359.919128,96.280289 
	C360.506348,96.701828 360.744659,96.846992 361.010956,96.946159 
	C361.010956,96.946159 361.053314,96.944466 361.120972,97.305237 
	C362.559113,98.960968 363.926575,100.259132 365.300995,101.549911 
	C366.530884,102.704941 367.768341,103.851852 368.721680,105.025696 
	C367.947571,105.337646 367.454254,105.626244 366.960938,105.914841 
	C367.138947,106.113335 367.316986,106.311829 367.494995,106.510323 
	C367.996033,106.006081 368.497040,105.501846 369.344177,105.042038 
	C372.060516,107.412712 374.430756,109.738953 376.863403,112.311264 
	C376.975586,112.719139 377.025269,112.880928 377.074951,113.042717 
	C377.074951,113.042717 377.051941,113.049782 376.644165,113.030136 
	C375.162018,113.024170 374.087646,113.037842 372.851685,112.720535 
	C367.457977,109.627014 362.225861,106.864479 357.765717,104.509529 
	C354.846832,105.449768 352.420502,106.445419 349.896942,106.992424 
	C346.396362,107.751213 343.137482,108.445404 341.715729,112.466393 
	C341.333191,113.548317 339.651123,114.329361 338.408142,114.913620 
	C336.194946,115.953964 333.852539,116.716263 331.580566,117.635490 
	C327.457458,119.303696 323.457275,121.983528 319.205078,122.463531 
	C312.354858,123.236832 309.065704,126.632248 307.635254,132.947357 
	C304.531403,131.597183 301.785645,130.281509 298.838318,128.696167 
	C295.423584,126.280121 292.210480,124.133751 288.997375,121.987373 
z"/>
<path fill="#4837A7" opacity="1.000000" stroke="none" 
	d="
M170.121750,409.334778 
	C173.786560,410.523315 177.734848,411.745422 181.363022,413.595367 
	C186.873077,416.404846 192.160919,419.650116 197.543182,422.710236 
	C197.569489,422.091400 197.595795,421.472595 197.622101,420.853760 
	C200.454025,419.902649 203.262634,418.249451 206.122986,418.154480 
	C211.228989,417.984985 215.699860,416.947235 220.277405,414.410034 
	C226.250320,411.099426 232.689255,408.354950 239.243515,406.458374 
	C244.113068,405.049347 245.347305,402.062775 246.004349,397.910797 
	C246.250015,396.358429 246.872147,394.865601 247.648285,393.173676 
	C247.971268,400.354309 247.968582,407.706879 247.630920,415.683838 
	C246.515457,420.917908 245.583267,425.508362 244.994431,430.142426 
	C244.318878,435.458832 242.526917,436.494568 237.736435,434.156860 
	C235.901031,433.261200 233.888275,432.728973 231.383774,431.824341 
	C231.771332,434.852844 231.981567,436.495697 232.189102,438.117493 
	C228.100128,437.092316 224.490463,436.252686 220.921875,435.264648 
	C219.177017,434.781555 217.542038,433.902832 215.798111,433.414764 
	C212.850449,432.589844 209.855759,431.932953 206.880844,431.205383 
	C194.674515,424.020081 182.468201,416.834778 170.121750,409.334778 
z"/>
<path fill="#2678C3" opacity="1.000000" stroke="none" 
	d="
M87.051682,361.466522 
	C91.989380,363.022156 96.984688,365.023285 102.072441,366.752380 
	C103.926720,367.382538 106.001083,367.365082 108.429512,367.707092 
	C110.294594,371.181580 119.039581,374.320282 123.793816,372.682404 
	C120.413559,367.874451 123.546227,361.386932 130.319443,358.390167 
	C133.411392,357.022125 136.642258,355.363251 138.964783,353.004089 
	C142.373077,349.541962 145.145248,353.232147 148.551697,352.981140 
	C148.966644,365.619507 149.029190,378.250488 149.008606,390.881348 
	C149.006226,392.344879 148.542496,393.807648 148.131805,395.659302 
	C140.176682,392.031525 132.233414,388.276733 124.621712,383.939941 
	C112.017380,376.758667 99.626625,369.202545 87.051682,361.466522 
z"/>
<path fill="#472588" opacity="1.000000" stroke="none" 
	d="
M425.985168,306.991547 
	C425.094025,299.352814 424.032440,291.728668 423.377472,284.069733 
	C423.000916,279.666901 422.996857,275.185547 423.337860,270.779236 
	C423.815460,264.607666 424.784851,258.474701 425.513245,252.321609 
	C425.726929,250.516464 425.993469,248.696930 425.968933,246.887589 
	C425.804810,234.790665 425.549377,222.694992 425.378296,210.598129 
	C425.355164,208.960373 425.566650,207.308472 425.791107,205.679886 
	C426.928009,197.431732 423.034546,189.651230 416.273956,185.234741 
	C412.766815,182.943619 409.879944,179.703079 406.364532,176.582230 
	C405.374603,177.145966 404.013947,177.920807 402.478607,178.795135 
	C400.287506,176.503799 399.105011,174.618164 402.512299,172.371292 
	C403.617889,171.642212 404.088806,169.950699 405.055939,168.055573 
	C405.493256,166.590714 405.724701,165.769669 405.956116,164.948639 
	C405.956116,164.948639 405.997314,165.001266 406.316772,164.923584 
	C408.497803,164.545670 410.064026,163.458572 410.891235,166.898956 
	C411.451813,169.230286 414.444397,171.390778 416.840424,172.781342 
	C421.942108,175.742111 427.587952,177.938599 426.082520,185.616867 
	C425.881836,186.640518 426.563965,187.837234 426.837280,188.953796 
	C427.204529,190.861801 427.889984,192.769424 427.892395,194.677887 
	C427.950439,240.589539 427.942627,286.501282 427.903564,332.412994 
	C427.902222,334.023529 427.457977,335.633667 426.619629,337.619354 
	C424.680267,337.996246 423.341339,337.997772 422.187408,337.698975 
	C423.538727,334.171570 425.451050,331.004395 425.716125,327.704865 
	C426.267761,320.837524 425.947235,313.900146 425.985168,306.991547 
z"/>
<path fill="#49349E" opacity="1.000000" stroke="none" 
	d="
M207.044342,431.443237 
	C209.855759,431.932953 212.850449,432.589844 215.798111,433.414764 
	C217.542038,433.902832 219.177017,434.781555 220.921875,435.264648 
	C224.490463,436.252686 228.100128,437.092316 232.189102,438.117493 
	C231.981567,436.495697 231.771332,434.852844 231.383774,431.824341 
	C233.888275,432.728973 235.901031,433.261200 237.736435,434.156860 
	C242.526917,436.494568 244.318878,435.458832 244.994431,430.142426 
	C245.583267,425.508362 246.515457,420.917908 247.620361,416.152100 
	C247.964493,425.299805 248.110703,434.606476 247.896820,443.904877 
	C247.854248,445.756561 246.434204,447.576508 245.355240,449.616791 
	C236.624878,450.269196 230.290924,445.002472 223.320816,441.614471 
	C219.200226,439.611572 215.513535,436.716034 211.200516,433.791901 
	C210.129074,432.968536 209.488846,432.575165 208.848618,432.181793 
	C208.301697,432.014893 207.754776,431.847992 207.044342,431.443237 
z"/>
<path fill="#462385" opacity="1.000000" stroke="none" 
	d="
M427.037537,188.583542 
	C426.563965,187.837234 425.881836,186.640518 426.082520,185.616867 
	C427.587952,177.938599 421.942108,175.742111 416.840424,172.781342 
	C414.444397,171.390778 411.451813,169.230286 410.891235,166.898956 
	C410.064026,163.458572 408.497803,164.545670 406.292053,164.900421 
	C406.352844,164.072769 406.515381,162.772293 407.201172,162.374863 
	C412.471863,159.320602 417.786316,156.327957 423.215302,153.568222 
	C425.189331,152.564758 427.855469,152.239761 427.838959,155.604843 
	C427.785583,166.475052 427.459076,177.343903 427.037537,188.583542 
z"/>
<path fill="#27A6D3" opacity="1.000000" stroke="none" 
	d="
M154.042847,152.051971 
	C155.200775,151.515594 156.358688,150.979218 158.089691,150.115845 
	C172.664093,141.922714 186.609100,133.953964 200.687698,126.228661 
	C209.250122,121.530220 218.018707,117.207481 226.785843,112.801743 
	C226.876999,112.887512 227.059174,113.059227 227.059174,113.059227 
	C219.373535,117.726242 211.746933,122.494080 203.988342,127.036491 
	C192.526917,133.746780 180.986328,140.322510 169.452271,146.907913 
	C157.668045,153.636139 145.849045,160.303467 134.051453,167.008316 
	C132.939682,167.640167 131.872192,168.349930 130.160248,169.017075 
	C129.359879,169.016281 129.183395,169.021896 128.998306,168.693329 
	C129.015488,167.914612 129.041290,167.470123 129.067108,167.025635 
	C129.921982,166.517670 130.776855,166.009720 132.157791,165.136230 
	C138.470566,161.203033 144.257263,157.635345 150.043976,154.067673 
	C150.043976,154.067673 150.041031,154.021866 150.406525,154.037018 
	C151.862289,153.385422 152.952560,152.718704 154.042847,152.051971 
z"/>
<path fill="#66C2E3" opacity="1.000000" stroke="none" 
	d="
M70.281448,171.088745 
	C70.185219,196.841675 70.051544,222.594528 70.002708,248.347549 
	C69.947876,277.260040 69.969696,306.172668 69.976707,335.555237 
	C69.676102,334.845398 69.078804,333.665802 69.077690,332.485657 
	C69.020119,271.722046 69.012367,210.958420 69.012283,150.194778 
	C69.012283,149.540436 69.183311,148.886093 69.675026,148.012817 
	C70.126831,148.638901 70.178101,149.483902 70.210510,151.197998 
	C70.221581,158.407639 70.251511,164.748184 70.281448,171.088745 
z"/>
<path fill="#217EC7" opacity="1.000000" stroke="none" 
	d="
M373.013306,113.051521 
	C374.087646,113.037842 375.162018,113.024170 376.638214,113.040588 
	C371.901245,116.295685 366.862762,119.695740 361.602844,122.709427 
	C350.467560,129.089462 339.152985,135.157806 328.049591,141.591461 
	C324.394867,143.709091 321.280212,143.804535 317.803589,141.446991 
	C314.727448,139.361008 311.432495,137.597763 308.157593,135.305725 
	C308.081055,134.919403 308.222046,134.778717 308.574524,134.863068 
	C312.538330,136.601776 316.049622,138.561707 319.800507,139.789688 
	C321.872009,140.467896 324.686981,140.653961 326.570587,139.778732 
	C331.344391,137.560562 335.780212,134.615677 340.353912,131.966095 
	C351.239594,125.659912 362.126740,119.356209 373.013306,113.051521 
z"/>
<path fill="#BBE6FA" opacity="1.000000" stroke="none" 
	d="
M129.006927,169.027527 
	C129.183395,169.021896 129.359879,169.016281 129.798935,169.044128 
	C130.037949,217.483124 130.014374,265.888611 129.923462,314.787231 
	C129.567932,313.379089 129.032059,311.478363 129.028229,309.576569 
	C128.953796,272.723480 128.941605,235.870270 128.941620,198.082947 
	C128.987305,187.762634 129.007965,178.376450 129.009689,168.991394 
	C128.990738,168.992493 129.006927,169.027527 129.006927,169.027527 
z"/>
<path fill="#27A6D3" opacity="1.000000" stroke="none" 
	d="
M259.927399,104.147568 
	C264.153290,107.266289 268.379150,110.385002 272.844666,114.023804 
	C273.074005,114.745430 273.063721,114.946983 273.053467,115.148529 
	C266.359985,111.563828 259.487457,108.267166 253.051712,104.267746 
	C250.027328,102.388268 248.093842,101.851143 244.859848,103.905975 
	C239.437790,107.351044 233.522430,110.019730 227.436920,113.037170 
	C227.059174,113.059227 226.876999,112.887512 226.805878,112.526871 
	C227.132248,111.303291 227.297455,110.023178 227.967667,109.650009 
	C230.791046,108.077919 233.795502,106.835762 236.676376,105.360931 
	C240.237839,103.537689 243.568100,100.846527 247.332077,99.979446 
	C249.903992,99.386978 253.046692,101.272316 255.965149,102.027130 
	C255.996109,102.004395 255.950302,102.066277 256.086823,102.381569 
	C257.458038,103.180428 258.692719,103.663994 259.927399,104.147568 
z"/>
<path fill="#482586" opacity="1.000000" stroke="none" 
	d="
M354.991913,327.005371 
	C353.564423,326.771637 352.136963,326.537903 350.375977,326.162354 
	C355.163147,323.069824 360.283783,320.119110 366.083374,316.789825 
	C366.920654,302.598419 367.079010,288.785645 367.237335,274.972839 
	C367.497040,284.667725 367.756775,294.362610 368.013916,304.989807 
	C368.008209,308.380981 367.949127,310.841339 368.016144,313.298248 
	C368.098846,316.331909 368.010803,318.701202 364.303162,320.229523 
	C360.854401,321.651154 358.069244,324.682648 354.991913,327.005371 
z"/>
<path fill="#2678C3" opacity="1.000000" stroke="none" 
	d="
M149.027252,333.593353 
	C145.394104,333.987854 142.941620,332.943024 143.192307,328.574097 
	C143.255722,327.468567 142.033813,326.209930 141.228317,325.154633 
	C140.287369,323.921875 139.155640,322.834717 138.083054,321.331177 
	C142.246826,323.042664 146.434219,325.107391 150.811340,327.443848 
	C150.351822,329.540497 149.702560,331.365417 149.027252,333.593353 
z"/>
<path fill="#0E90CE" opacity="1.000000" stroke="none" 
	d="
M376.800964,112.065193 
	C374.430756,109.738953 372.060516,107.412712 369.345154,105.043236 
	C369.000000,105.000000 369.002441,105.002357 369.002441,105.002350 
	C367.768341,103.851852 366.530884,102.704941 365.300995,101.549911 
	C363.926575,100.259132 362.559113,98.960968 361.123230,97.326309 
	C366.823639,100.282249 372.589417,103.577904 378.827698,107.175461 
	C379.513031,107.674118 379.753448,107.827568 380.021484,107.937721 
	C380.021484,107.937721 380.080170,107.936371 379.959717,108.266441 
	C378.826477,109.752739 377.813721,110.908966 376.800964,112.065193 
z"/>
<path fill="#482586" opacity="1.000000" stroke="none" 
	d="
M359.460449,252.129547 
	C360.881836,250.225266 362.658752,248.291809 364.716003,246.180206 
	C366.176788,246.795837 368.385712,247.598679 368.378784,248.381958 
	C368.308685,256.325684 367.876862,264.266235 367.369141,272.571533 
	C367.191833,265.028076 367.191833,257.120789 367.191833,248.505676 
	C364.313416,249.908524 362.064728,251.004456 359.460449,252.129547 
z"/>
<path fill="#2678C3" opacity="1.000000" stroke="none" 
	d="
M72.966286,346.445251 
	C74.652481,347.726318 76.258034,349.468781 78.036469,351.011993 
	C80.032646,352.744049 82.185074,354.296051 84.630737,355.952942 
	C85.568382,357.453613 86.144806,358.927704 86.806999,360.731384 
	C80.474838,358.049103 75.836304,353.296722 72.966286,346.445251 
z"/>
<path fill="#BBE6FA" opacity="1.000000" stroke="none" 
	d="
M367.165924,274.728302 
	C367.079010,288.785645 366.920654,302.598419 366.399231,316.623108 
	C366.078857,302.652679 366.121582,288.470306 366.582947,274.135376 
	C367.032562,274.149780 367.063507,274.316772 367.165924,274.728302 
z"/>
<path fill="#0E90CE" opacity="1.000000" stroke="none" 
	d="
M288.683655,121.917572 
	C292.210480,124.133751 295.423584,126.280121 298.816711,128.973587 
	C298.985291,129.705597 298.973907,129.890503 298.962555,130.075424 
	C293.716492,127.276237 288.470459,124.477051 283.305145,121.164291 
	C283.924408,120.430969 284.462952,120.211205 285.001465,119.991440 
	C286.124298,120.610222 287.247101,121.228996 288.683655,121.917572 
z"/>
<path fill="#0992D4" opacity="1.000000" stroke="none" 
	d="
M285.080292,119.698792 
	C284.462952,120.211205 283.924408,120.430969 283.163025,120.841309 
	C282.019806,120.568970 281.099518,120.106049 279.915436,119.082535 
	C279.097839,117.685814 278.544006,116.849693 277.994324,116.007858 
	C277.998505,116.002144 278.008728,115.989410 278.008728,115.989410 
	C280.704041,116.475708 284.506104,114.645798 285.080292,119.698792 
z"/>
<path fill="#482180" opacity="1.000000" stroke="none" 
	d="
M422.002441,337.999268 
	C423.341339,337.997772 424.680267,337.996246 426.420410,337.993347 
	C425.770203,341.223907 424.718719,344.455841 423.350159,347.858337 
	C423.033051,348.028931 422.932037,347.928223 422.955872,347.518341 
	C423.312286,345.406982 423.644836,343.705505 423.883667,341.720123 
	C423.193848,340.957886 422.597748,340.479553 422.001648,339.667572 
	C422.001953,338.889038 422.002197,338.444183 422.002441,337.999268 
z"/>
<path fill="#0E90CE" opacity="1.000000" stroke="none" 
	d="
M358.917725,95.635056 
	C355.749390,94.200058 352.438354,92.441582 349.098846,90.325409 
	C352.305267,91.749001 355.540161,93.530289 358.917725,95.635056 
z"/>
<path fill="#217EC7" opacity="1.000000" stroke="none" 
	d="
M299.132080,130.379364 
	C298.973907,129.890503 298.985291,129.705597 299.018311,129.243256 
	C301.785645,130.281509 304.531403,131.597183 307.656860,133.249664 
	C308.098419,133.983902 308.160248,134.381302 308.222046,134.778717 
	C308.222046,134.778717 308.081055,134.919403 308.010620,134.989807 
	C305.060669,133.601242 302.181122,132.142288 299.132080,130.379364 
z"/>
<path fill="#2678C3" opacity="1.000000" stroke="none" 
	d="
M70.158432,338.346497 
	C71.140663,340.381256 72.052505,342.801025 72.944382,345.613983 
	C71.978966,343.581970 71.033501,341.156738 70.158432,338.346497 
z"/>
<path fill="#217EC7" opacity="1.000000" stroke="none" 
	d="
M376.863403,112.311264 
	C377.813721,110.908966 378.826477,109.752739 379.958984,108.295792 
	C382.600220,110.694580 382.600220,110.694580 377.429718,113.017700 
	C377.025269,112.880928 376.975586,112.719139 376.863403,112.311264 
z"/>
<path fill="#462385" opacity="1.000000" stroke="none" 
	d="
M292.680634,229.303619 
	C291.548798,230.431274 290.089752,231.636383 288.277710,232.901672 
	C289.400970,231.768280 290.877197,230.574677 292.680634,229.303619 
z"/>
<path fill="#0992D4" opacity="1.000000" stroke="none" 
	d="
M273.132324,115.407127 
	C273.063721,114.946983 273.074005,114.745430 273.106873,114.241295 
	C274.653351,114.412506 276.177277,114.886299 277.854980,115.674759 
	C278.008728,115.989410 277.998505,116.002144 277.736267,115.968262 
	C276.639221,116.215790 275.804413,116.497208 274.969604,116.778610 
	C274.383453,116.407646 273.797302,116.036690 273.132324,115.407127 
z"/>
<path fill="#482180" opacity="1.000000" stroke="none" 
	d="
M308.650208,350.064209 
	C307.865662,351.031494 306.735168,351.935211 305.274200,352.889404 
	C306.063934,351.960144 307.184113,350.980408 308.650208,350.064209 
z"/>
<path fill="#0E90CE" opacity="1.000000" stroke="none" 
	d="
M275.311798,116.874397 
	C275.804413,116.497208 276.639221,116.215790 277.732117,115.973984 
	C278.544006,116.849693 279.097839,117.685814 279.772736,118.792564 
	C278.480530,118.365524 277.067261,117.667847 275.311798,116.874397 
z"/>
<path fill="#462385" opacity="1.000000" stroke="none" 
	d="
M405.621826,164.968414 
	C405.724701,165.769669 405.493256,166.590714 405.130920,167.705566 
	C404.589050,167.205521 404.178131,166.411652 403.859589,165.360687 
	C404.397156,165.065155 404.842346,165.026672 405.621826,164.968414 
z"/>
<path fill="#2678C3" opacity="1.000000" stroke="none" 
	d="
M135.970062,319.637939 
	C135.160172,319.484283 134.225601,319.033905 133.179550,318.273499 
	C133.993835,318.422729 134.919601,318.881989 135.970062,319.637939 
z"/>
<path fill="#4837A7" opacity="1.000000" stroke="none" 
	d="
M163.132080,405.304016 
	C163.608215,405.206177 164.225494,405.369019 164.904861,405.768921 
	C164.402359,405.858856 163.837784,405.711761 163.132080,405.304016 
z"/>
<path fill="#4837A7" opacity="1.000000" stroke="none" 
	d="
M208.936386,432.462769 
	C209.488846,432.575165 210.129074,432.968536 210.872253,433.645020 
	C210.324875,433.533325 209.674515,433.138519 208.936386,432.462769 
z"/>
<path fill="#462385" opacity="1.000000" stroke="none" 
	d="
M295.676544,228.000336 
	C295.487701,228.260941 294.997437,228.552444 294.224060,228.900757 
	C294.418976,228.648819 294.897064,228.340027 295.676544,228.000336 
z"/>
<path fill="#4837A7" opacity="1.000000" stroke="none" 
	d="
M166.117615,407.291443 
	C166.503387,407.239441 167.023788,407.457123 167.752182,407.869934 
	C167.390854,407.897095 166.821548,407.729095 166.117615,407.291443 
z"/>
<path fill="#2678C3" opacity="1.000000" stroke="none" 
	d="
M137.944748,320.721069 
	C137.766266,320.833557 137.534164,320.683655 137.178192,320.351471 
	C137.391098,320.068268 137.670029,320.164734 137.944748,320.721069 
z"/>
<path fill="#2678C3" opacity="1.000000" stroke="none" 
	d="
M132.976837,317.697540 
	C132.779922,317.821014 132.541779,317.663147 132.175812,317.318359 
	C132.321304,317.260345 132.617188,317.355286 132.976837,317.697540 
z"/>
<path fill="#217EC7" opacity="1.000000" stroke="none" 
	d="
M379.959717,107.688828 
	C379.753448,107.827568 379.513031,107.674118 379.151276,107.322556 
	C379.300873,107.258476 379.599426,107.349205 379.959717,107.688828 
z"/>
<path fill="#0E90CE" opacity="1.000000" stroke="none" 
	d="
M360.944824,96.705048 
	C360.744659,96.846992 360.506348,96.701828 360.151733,96.357796 
	C360.376984,96.025154 360.667419,96.111488 360.944824,96.705048 
z"/>
<path fill="#0E90CE" opacity="1.000000" stroke="none" 
	d="
M348.985657,89.686653 
	C348.772308,89.829216 348.522919,89.669235 348.142456,89.310532 
	C348.298157,89.243103 348.610931,89.333870 348.985657,89.686653 
z"/>
<path fill="#0E90CE" opacity="1.000000" stroke="none" 
	d="
M347.006836,88.668175 
	C346.807404,88.819695 346.548157,88.672607 346.153809,88.320114 
	C346.299652,88.249908 346.609039,88.334862 347.006836,88.668175 
z"/>
<path fill="#05AEE5" opacity="1.000000" stroke="none" 
	d="
M305.846344,64.542480 
	C305.665924,64.649132 305.485260,64.520531 305.239990,64.206726 
	C305.425201,64.023293 305.648773,64.118530 305.846344,64.542480 
z"/>
<path fill="#05AEE5" opacity="1.000000" stroke="none" 
	d="
M304.904114,63.678963 
	C304.729675,63.787319 304.523621,63.649242 304.200073,63.357765 
	C304.404022,63.048985 304.667358,63.125038 304.904114,63.678963 
z"/>
<path fill="#4837A7" opacity="1.000000" stroke="none" 
	d="
M168.031403,408.276215 
	C168.197540,408.173370 168.430008,408.321198 168.796387,408.638184 
	C168.948837,408.778198 168.475403,408.807648 168.475403,408.807648 
	C168.475403,408.807648 168.116287,408.497742 168.031403,408.276215 
z"/>
<path fill="#04AAE3" opacity="1.000000" stroke="none" 
	d="
M294.959198,58.973515 
	C294.959198,58.973515 294.975586,58.592957 294.985718,58.402771 
	C295.157837,58.165527 295.319824,58.118469 295.727753,58.129555 
	C295.793182,58.408432 295.591980,58.608326 295.182648,58.895496 
	C294.995239,59.003605 294.959198,58.973515 294.959198,58.973515 
z"/>
<path fill="#049CD9" opacity="1.000000" stroke="none" 
	d="
M70.435638,171.077362 
	C70.251511,164.748184 70.221581,158.407639 70.252884,151.618073 
	C70.530243,157.481537 70.746376,163.793976 70.930641,170.579834 
	C70.898773,171.053238 70.589821,171.065994 70.435638,171.077362 
z"/>
<path fill="#04AAE3" opacity="1.000000" stroke="none" 
	d="
M295.010590,59.021362 
	C295.025940,59.039124 294.864502,59.049225 294.911865,59.011368 
	C294.959198,58.973515 294.995239,59.003605 295.010590,59.021362 
z"/>
<path fill="#4B238A" opacity="1.000000" stroke="none" 
	d="
M422.187439,337.698975 
	C422.002197,338.444183 422.001953,338.889038 422.100037,339.949219 
	C422.791412,341.044342 423.384399,341.524200 423.977417,342.004028 
	C423.644836,343.705505 423.312286,345.406982 422.905518,347.467834 
	C422.428040,347.868134 422.024780,347.909058 421.236816,347.664917 
	C420.183746,346.897919 419.515381,346.415924 418.846985,345.933929 
	C418.563843,346.955048 418.280701,347.976166 417.997559,348.997284 
	C417.743286,349.185974 417.510468,349.398163 416.820343,349.885284 
	C415.231323,351.425598 414.120972,352.714447 413.010620,354.003265 
	C412.212189,355.557495 411.413757,357.111725 410.307312,358.825500 
	C404.795898,353.558136 396.233093,352.919678 389.647552,358.119598 
	C385.722107,361.219116 382.643372,361.228424 379.178925,357.854218 
	C375.190704,353.969788 370.699249,351.661774 364.798401,352.878235 
	C362.308472,353.391510 360.454681,352.623657 360.622772,349.070923 
	C360.805664,345.206390 360.367096,341.186768 359.342072,337.471344 
	C359.054138,336.427582 355.763763,335.844269 353.821808,335.766205 
	C352.701721,335.721161 351.523987,337.109192 350.372223,337.852173 
	C349.980713,337.458160 349.589233,337.064117 349.197723,336.670105 
	C350.663147,334.971649 351.835663,332.753357 353.674377,331.717468 
	C355.607117,330.628540 358.177551,330.671478 360.469299,330.219849 
	C360.473755,329.791809 360.478210,329.363739 360.482635,328.935699 
	C358.858154,328.423798 357.233643,327.911896 355.300537,327.202667 
	C358.069244,324.682648 360.854401,321.651154 364.303162,320.229523 
	C368.010803,318.701202 368.098846,316.331909 368.016144,313.298248 
	C367.949127,310.841339 368.008209,308.380981 368.017426,305.458130 
	C369.987701,305.168274 372.052490,305.025482 373.887451,305.607300 
	C375.662079,306.170013 377.303436,307.343475 378.814178,308.496521 
	C380.470245,309.760468 381.909851,311.308014 383.443787,312.731964 
	C384.517426,311.131500 385.591064,309.531067 387.099243,307.282837 
	C391.019104,306.831879 395.494904,305.867096 394.512634,299.145721 
	C394.412354,298.459503 397.050476,297.373138 398.417877,296.472473 
	C399.153015,297.902405 400.123566,299.270386 400.523041,300.788605 
	C400.720215,301.538025 399.863190,302.564880 399.147217,304.262878 
	C402.142395,304.663086 404.837067,304.809723 407.424652,305.414551 
	C412.405701,306.578827 420.223541,304.340240 417.617371,314.163361 
	C420.483215,311.469116 422.851379,309.242737 425.602356,307.003967 
	C425.947235,313.900146 426.267761,320.837524 425.716125,327.704865 
	C425.451050,331.004395 423.538727,334.171570 422.187439,337.698975 
z"/>
<path fill="#492284" opacity="1.000000" stroke="none" 
	d="
M413.370911,353.971161 
	C414.120972,352.714447 415.231323,351.425598 416.671448,350.069092 
	C415.911194,351.313965 414.821198,352.626526 413.370911,353.971161 
z"/>
<path fill="#492284" opacity="1.000000" stroke="none" 
	d="
M355.036987,387.326050 
	C356.116028,387.257782 357.232025,387.515564 358.348053,387.773315 
	C358.093201,388.345551 357.838348,388.917786 357.583496,389.490021 
	C356.746979,388.877380 355.910492,388.264771 355.036987,387.326050 
z"/>
<path fill="#492284" opacity="1.000000" stroke="none" 
	d="
M418.311279,348.937805 
	C418.280701,347.976166 418.563843,346.955048 418.846985,345.933929 
	C419.515381,346.415924 420.183746,346.897919 420.932098,347.677551 
	C420.216370,348.276245 419.420654,348.577271 418.311279,348.937805 
z"/>
<path fill="#03A6E1" opacity="1.000000" stroke="none" 
	d="
M260.059509,103.822014 
	C258.692719,103.663994 257.458038,103.180428 256.296997,102.307617 
	C256.595154,101.602371 256.819611,101.286354 257.044067,100.970337 
	C256.910309,100.947914 256.691193,100.864296 256.656403,100.912834 
	C256.395233,101.277199 256.170410,101.667610 255.934204,102.049866 
	C253.046692,101.272316 249.903992,99.386978 247.332077,99.979446 
	C243.568100,100.846527 240.237839,103.537689 236.676376,105.360931 
	C233.795502,106.835762 230.791046,108.077919 227.967667,109.650009 
	C227.297455,110.023178 227.132248,111.303291 226.714722,112.441101 
	C218.018707,117.207481 209.250122,121.530220 200.687698,126.228661 
	C186.609100,133.953964 172.664093,141.922714 158.329819,149.890259 
	C157.883087,147.548187 164.828552,136.356796 167.043030,135.807648 
	C175.841110,133.625946 181.187027,126.639908 187.538315,121.116814 
	C193.701920,115.756927 200.891205,114.242081 208.701660,114.448143 
	C209.992447,114.482201 211.277466,114.734787 212.069702,113.621788 
	C213.976715,112.372345 215.908615,111.158745 217.781006,109.859413 
	C218.828354,109.132614 219.813736,108.304276 220.761398,107.448982 
	C222.095215,106.245163 223.316757,104.913986 224.678909,103.745209 
	C226.782639,101.940147 228.964752,100.226425 231.849670,97.873680 
	C235.016571,100.576279 238.203094,97.872253 241.963776,95.307632 
	C244.705246,93.438095 248.475433,93.079498 251.784424,92.039108 
	C256.142090,90.668999 260.434784,89.016502 264.873901,88.005989 
	C268.213409,87.245804 271.763580,86.884064 275.177612,87.080582 
	C284.250275,87.602806 290.827972,82.118324 297.729340,77.776459 
	C300.080383,76.297340 301.033203,72.595787 302.683258,69.811295 
	C304.414368,74.893921 307.465942,72.598572 310.752808,70.236122 
	C316.734955,73.258080 322.547699,76.381035 328.141785,79.855988 
	C329.790741,80.880310 330.821350,82.900063 332.135345,84.463623 
	C331.635895,84.928818 331.136444,85.394012 330.636993,85.859207 
	C329.387909,84.872284 328.029114,83.994911 326.911987,82.876205 
	C324.389526,80.350136 321.812042,79.792137 318.391205,81.332893 
	C311.703979,84.344841 306.247681,90.095131 298.264862,90.338310 
	C297.221893,90.370079 296.265167,91.921951 295.193054,92.660172 
	C294.017883,93.469345 292.842072,94.465530 291.515106,94.832253 
	C286.817139,96.130547 281.983612,96.967850 277.338776,98.419319 
	C273.605255,99.586029 270.354370,101.922081 265.955658,99.837662 
	C264.858582,99.317787 262.156158,102.185677 260.059509,103.822014 
z"/>
<path fill="#03A6E1" opacity="1.000000" stroke="none" 
	d="
M128.632660,167.019180 
	C129.041290,167.470123 129.015488,167.914612 128.998306,168.693329 
	C129.006927,169.027527 128.990738,168.992493 128.781158,169.335175 
	C128.361954,175.440170 128.152344,181.202469 127.561066,186.980576 
	C120.988617,189.607269 114.742004,192.095306 108.627312,194.873688 
	C104.762840,196.629623 101.278526,199.793701 97.288651,200.543594 
	C93.182907,201.315308 90.570419,203.381409 87.519821,205.689667 
	C85.402702,207.291580 81.867439,208.623138 79.538445,207.985107 
	C75.511513,206.881912 75.079361,208.689880 75.056793,211.498032 
	C75.033920,214.343018 74.448196,216.148102 71.075783,214.985672 
	C71.043777,206.970490 71.011772,198.955307 70.999451,190.472260 
	C75.822739,188.289108 80.615402,186.542023 85.438438,184.883194 
	C86.507561,184.515472 87.822098,184.024017 88.788239,184.330811 
	C94.790512,186.236893 98.681618,182.714020 102.361633,179.070053 
	C109.567528,171.934753 117.669914,166.930191 128.632660,167.019180 
z"/>
<path fill="#03A6E1" opacity="1.000000" stroke="none" 
	d="
M149.687408,153.978729 
	C144.257263,157.635345 138.470566,161.203033 132.370697,164.927048 
	C131.468964,163.732193 130.599106,162.429520 130.355667,161.018768 
	C129.959167,158.720886 130.416458,157.245224 133.557571,157.909821 
	C135.229431,158.263580 138.183563,157.824768 138.855881,156.713440 
	C141.614029,152.154266 145.062714,151.931335 149.687408,153.978729 
z"/>
<path fill="#03A6E1" opacity="1.000000" stroke="none" 
	d="
M153.802277,151.809479 
	C152.952560,152.718704 151.862289,153.385422 150.421219,154.055099 
	C149.116638,152.110474 148.162827,150.162903 147.209015,148.215317 
	C147.595657,147.834961 147.982285,147.454605 148.368912,147.074249 
	C150.099838,148.571838 151.830765,150.069412 153.802277,151.809479 
z"/>
<path fill="#4243AF" opacity="1.000000" stroke="none" 
	d="
M168.703217,401.105255 
	C168.085800,401.660614 167.482346,401.936829 166.878906,402.213043 
	C166.906540,401.513123 166.934189,400.813202 166.961823,400.113281 
	C167.546921,400.350891 168.132034,400.588470 168.703217,401.105255 
z"/>
<path fill="#049CD9" opacity="1.000000" stroke="none" 
	d="
M71.048531,215.455048 
	C74.448196,216.148102 75.033920,214.343018 75.056793,211.498032 
	C75.079361,208.689880 75.511513,206.881912 79.538445,207.985107 
	C81.867439,208.623138 85.402702,207.291580 87.519821,205.689667 
	C90.570419,203.381409 93.182907,201.315308 97.288651,200.543594 
	C101.278526,199.793701 104.762840,196.629623 108.627312,194.873688 
	C114.742004,192.095306 120.988617,189.607269 127.579514,187.442871 
	C128.005585,191.284180 128.031525,194.679016 128.057465,198.073837 
	C128.037369,206.405045 128.017273,214.736237 127.556793,223.534790 
	C123.104950,225.169235 119.045639,226.196686 115.097664,227.549149 
	C112.122452,228.568390 108.398994,229.239166 106.552284,231.390289 
	C99.585464,239.505539 89.847061,242.496063 80.649475,246.475754 
	C77.949379,247.644058 75.522392,248.289352 74.739670,251.676743 
	C74.508156,252.678635 72.325722,253.229752 71.037292,253.987442 
	C71.031960,241.299759 71.026619,228.612091 71.048531,215.455048 
z"/>
<path fill="#1587CD" opacity="1.000000" stroke="none" 
	d="
M127.963264,290.517578 
	C121.849396,293.998566 115.231041,296.293854 109.761566,300.198486 
	C102.002846,305.737427 95.278168,312.703461 87.729523,318.567810 
	C84.419128,321.139587 82.462418,325.774506 77.010948,325.794128 
	C75.930748,325.798035 74.865509,329.953156 73.005028,333.841644 
	C72.119347,330.752472 71.129440,328.831909 71.088531,326.891327 
	C70.913155,318.573059 71.017235,310.248962 71.391968,301.425934 
	C72.901283,299.703094 74.076027,298.514008 75.164459,297.250549 
	C76.301254,295.930969 77.160263,294.301086 78.480972,293.224091 
	C82.652702,289.822174 86.921989,286.530212 91.284660,283.377136 
	C92.941063,282.179993 94.884727,281.282745 96.819389,280.588684 
	C100.739723,279.182251 104.905525,278.366028 108.676544,276.658203 
	C115.218803,273.695374 121.538025,270.240051 127.950783,266.991272 
	C127.957764,274.677643 127.964745,282.364044 127.963264,290.517578 
z"/>
<path fill="#0992D4" opacity="1.000000" stroke="none" 
	d="
M71.023048,254.457108 
	C72.325722,253.229752 74.508156,252.678635 74.739670,251.676743 
	C75.522392,248.289352 77.949379,247.644058 80.649475,246.475754 
	C89.847061,242.496063 99.585464,239.505539 106.552284,231.390289 
	C108.398994,229.239166 112.122452,228.568390 115.097664,227.549149 
	C119.045639,226.196686 123.104950,225.169235 127.547417,224.003693 
	C127.975266,231.686478 127.972122,239.367706 127.582733,247.551437 
	C120.445374,250.048462 113.379807,251.351868 107.034698,254.238770 
	C101.113983,256.932587 95.990181,261.357513 90.458305,264.931763 
	C84.305771,268.906982 78.822433,274.202759 71.016953,274.992554 
	C71.014236,268.303955 71.011520,261.615356 71.023048,254.457108 
z"/>
<path fill="#108CCF" opacity="1.000000" stroke="none" 
	d="
M71.009674,275.461945 
	C78.822433,274.202759 84.305771,268.906982 90.458305,264.931763 
	C95.990181,261.357513 101.113983,256.932587 107.034698,254.238770 
	C113.379807,251.351868 120.445374,250.048462 127.575172,248.019012 
	C127.959999,254.008224 127.966156,260.032349 127.961548,266.523865 
	C121.538025,270.240051 115.218803,273.695374 108.676544,276.658203 
	C104.905525,278.366028 100.739723,279.182251 96.819389,280.588684 
	C94.884727,281.282745 92.941063,282.179993 91.284660,283.377136 
	C86.921989,286.530212 82.652702,289.822174 78.480972,293.224091 
	C77.160263,294.301086 76.301254,295.930969 75.164459,297.250549 
	C74.076027,298.514008 72.901283,299.703094 71.398811,300.956604 
	C71.022903,292.635986 71.012650,284.283661 71.009674,275.461945 
z"/>
<path fill="#27A6D3" opacity="1.000000" stroke="none" 
	d="
M128.249329,198.075043 
	C128.031525,194.679016 128.005585,191.284180 127.961174,187.427063 
	C128.152344,181.202469 128.361954,175.440170 128.800110,169.334076 
	C129.007965,178.376450 128.987305,187.762634 128.895493,197.622406 
	C128.824356,198.096024 128.441162,198.076263 128.249329,198.075043 
z"/>
<path fill="#1A81CA" opacity="1.000000" stroke="none" 
	d="
M93.033562,354.198242 
	C92.743034,353.418640 92.707710,352.708374 92.672386,351.998108 
	C93.201828,352.147491 93.731277,352.296875 94.260727,352.446259 
	C93.936737,353.053345 93.612747,353.660461 93.033562,354.198242 
z"/>
<path fill="#0E90CE" opacity="1.000000" stroke="none" 
	d="
M308.574554,134.863068 
	C308.160248,134.381302 308.098419,133.983902 308.015015,133.284180 
	C309.065704,126.632248 312.354858,123.236832 319.205078,122.463531 
	C323.457275,121.983528 327.457458,119.303696 331.580566,117.635490 
	C333.852539,116.716263 336.194946,115.953964 338.408142,114.913620 
	C339.651123,114.329361 341.333191,113.548317 341.715729,112.466393 
	C343.137482,108.445404 346.396362,107.751213 349.896942,106.992424 
	C352.420502,106.445419 354.846832,105.449768 357.765717,104.509529 
	C362.225861,106.864479 367.457977,109.627014 372.851685,112.720535 
	C362.126740,119.356209 351.239594,125.659912 340.353912,131.966095 
	C335.780212,134.615677 331.344391,137.560562 326.570587,139.778732 
	C324.686981,140.653961 321.872009,140.467896 319.800507,139.789688 
	C316.049622,138.561707 312.538330,136.601776 308.574554,134.863068 
z"/>
<path fill="#0E90CE" opacity="1.000000" stroke="none" 
	d="
M368.999023,104.998810 
	C368.497040,105.501846 367.996033,106.006081 367.494995,106.510323 
	C367.316986,106.311829 367.138947,106.113335 366.960938,105.914841 
	C367.454254,105.626244 367.947571,105.337646 368.721680,105.025711 
	C369.002441,105.002357 369.000000,105.000000 368.999023,104.998810 
z"/>
<path fill="#472588" opacity="1.000000" stroke="none" 
	d="
M423.883667,341.720123 
	C423.384399,341.524200 422.791412,341.044342 422.100037,340.282837 
	C422.597748,340.479553 423.193848,340.957886 423.883667,341.720123 
z"/>
<path fill="#05A0DC" opacity="1.000000" stroke="none" 
	d="
M255.965149,102.027130 
	C256.170410,101.667610 256.395233,101.277199 256.656403,100.912834 
	C256.691193,100.864296 256.910309,100.947914 257.044067,100.970337 
	C256.819611,101.286354 256.595154,101.602371 256.160492,101.992325 
	C255.950302,102.066277 255.996109,102.004395 255.965149,102.027130 
z"/>
</svg>